HIERARCHY
ROOT hip
{
  OFFSET 0 0 0
  CHANNELS 6 Xposition Yposition Zposition Zrotation Yrotation Xrotation
  JOINT abdomen
  {
    OFFSET 0 20.6881 -0.73152
    CHANNELS 3 Zrotation Xrotation Yrotation
    JOINT chest
    {
      OFFSET 0 11.7043 -0.48768
      CHANNELS 3 Zrotation Xrotation Yrotation
      JOINT neck
      {
        OFFSET 0 22.1894 -2.19456
        CHANNELS 3 Zrotation Xrotation Yrotation
        JOINT head
        {
          OFFSET -0.24384 7.07133 1.2192
          CHANNELS 3 Zrotation Xrotation Yrotation
          JOINT leftEye
          {
            OFFSET 4.14528 8.04674 8.04672
            CHANNELS 3 Zrotation Xrotation Yrotation
            End Site
            {
              OFFSET 1 0 0
            }
          }
          JOINT rightEye
          {
            OFFSET -3.6576 8.04674 8.04672
            CHANNELS 3 Zrotation Xrotation Yrotation
            End Site
            {
              OFFSET 1 0 0
            }
          }
        }
      }
      JOINT rCollar
      {
        OFFSET -2.68224 19.2634 -4.8768
        CHANNELS 3 Zrotation Xrotation Yrotation
        JOINT rShldr
        {
          OFFSET -8.77824 -1.95073 1.46304
          CHANNELS 3 Zrotation Xrotation Yrotation
          JOINT rForeArm
          {
            OFFSET -28.1742 -1.7115 0.48768
            CHANNELS 3 Zrotation Xrotation Yrotation
            JOINT rHand
            {
              OFFSET -22.5879 0.773209 7.07136
              CHANNELS 3 Zrotation Xrotation Yrotation
              JOINT rThumb1
              {
                OFFSET -1.2192 -0.487915 3.41376
                CHANNELS 3 Zrotation Xrotation Yrotation
                JOINT rThumb2
                {
                  OFFSET -3.37035 -0.52449 3.41376
                  CHANNELS 3 Zrotation Xrotation Yrotation
                  End Site
                  {
                    OFFSET -1.78271 -1.18214 1.43049
                  }
                }
              }
              JOINT rIndex1
              {
                OFFSET -7.75947 0.938293 5.60832
                CHANNELS 3 Zrotation Xrotation Yrotation
                JOINT rIndex2
                {
                  OFFSET -2.54057 -0.884171 1.56538
                  CHANNELS 3 Zrotation Xrotation Yrotation
                  End Site
                  {
                    OFFSET -1.62519 -0.234802 1.16502
                  }
                }
              }
              JOINT rMid1
              {
                OFFSET -8.24714 1.18213 3.41376
                CHANNELS 3 Zrotation Xrotation Yrotation
                JOINT rMid2
                {
                  OFFSET -3.10165 -0.590103 1.0647
                  CHANNELS 3 Zrotation Xrotation Yrotation
                  End Site
                  {
                    OFFSET -2.48547 -0.328903 0.83742
                  }
                }
              }
              JOINT rRing1
              {
                OFFSET -8.82822 0.546677 1.51678
                CHANNELS 3 Zrotation Xrotation Yrotation
                JOINT rRing2
                {
                  OFFSET -2.60934 -0.819778 -0.0198488
                  CHANNELS 3 Zrotation Xrotation Yrotation
                  End Site
                  {
                    OFFSET -2.33842 -0.294052 0.168128
                  }
                }
              }
              JOINT rPinky1
              {
                OFFSET -8.27202 -0.0477905 -0.4584
                CHANNELS 3 Zrotation Xrotation Yrotation
                JOINT rPinky2
                {
                  OFFSET -1.82734 -0.647385 -0.700984
                  CHANNELS 3 Zrotation Xrotation Yrotation
                  End Site
                  {
                    OFFSET -1.69225 -0.51767 -0.607171
                  }
                }
              }
            }
          }
        }
      }
      JOINT lCollar
      {
        OFFSET 2.68224 19.2634 -4.8768
        CHANNELS 3 Zrotation Xrotation Yrotation
        JOINT lShldr
        {
          OFFSET 8.77824 -1.95073 1.46304
          CHANNELS 3 Zrotation Xrotation Yrotation
          JOINT lForeArm
          {
            OFFSET 28.1742 -1.7115 0.48768
            CHANNELS 3 Zrotation Xrotation Yrotation
            JOINT lHand
            {
              OFFSET 22.5879 0.773209 7.07136
              CHANNELS 3 Zrotation Xrotation Yrotation
              JOINT lThumb1
              {
                OFFSET 1.2192 -0.487915 3.41376
                CHANNELS 3 Zrotation Xrotation Yrotation
                JOINT lThumb2
                {
                  OFFSET 3.37035 -0.52449 3.41376
                  CHANNELS 3 Zrotation Xrotation Yrotation
                  End Site
                  {
                    OFFSET 1.78271 -1.18214 1.43049
                  }
                }
              }
              JOINT lIndex1
              {
                OFFSET 7.75947 0.938293 5.60832
                CHANNELS 3 Zrotation Xrotation Yrotation
                JOINT lIndex2
                {
                  OFFSET 2.54057 -0.884171 1.56538
                  CHANNELS 3 Zrotation Xrotation Yrotation
                  End Site
                  {
                    OFFSET 1.62519 -0.234802 1.16502
                  }
                }
              }
              JOINT lMid1
              {
                OFFSET 8.24714 1.18213 3.41376
                CHANNELS 3 Zrotation Xrotation Yrotation
                JOINT lMid2
                {
                  OFFSET 3.10165 -0.590103 1.0647
                  CHANNELS 3 Zrotation Xrotation Yrotation
                  End Site
                  {
                    OFFSET 2.48547 -0.328903 0.83742
                  }
                }
              }
              JOINT lRing1
              {
                OFFSET 8.82822 0.546677 1.51678
                CHANNELS 3 Zrotation Xrotation Yrotation
                JOINT lRing2
                {
                  OFFSET 2.60934 -0.819778 -0.0198488
                  CHANNELS 3 Zrotation Xrotation Yrotation
                  End Site
                  {
                    OFFSET 2.33842 -0.294052 0.168128
                  }
                }
              }
              JOINT lPinky1
              {
                OFFSET 8.27202 -0.0477905 -0.4584
                CHANNELS 3 Zrotation Xrotation Yrotation
                JOINT lPinky2
                {
                  OFFSET 1.82734 -0.647385 -0.700984
                  CHANNELS 3 Zrotation Xrotation Yrotation
                  End Site
                  {
                    OFFSET 1.69225 -0.51767 -0.607171
                  }
                }
              }
            }
          }
        }
      }
    }
  }
  JOINT rButtock
  {
    OFFSET -8.77824 4.35084 1.2192
    CHANNELS 3 Zrotation Xrotation Yrotation
    JOINT rThigh
    {
      OFFSET 0 -1.70687 -2.19456
      CHANNELS 3 Zrotation Xrotation Yrotation
      JOINT rShin
      {
        OFFSET 0 -36.8199 0.73152
        CHANNELS 3 Zrotation Xrotation Yrotation
        JOINT rFoot
        {
          OFFSET 0.73152 -45.1104 -5.12064
          CHANNELS 3 Zrotation Xrotation Yrotation
          End Site
          {
            OFFSET -1.1221 -3.69964 12.103
          }
        }
      }
    }
  }
  JOINT lButtock
  {
    OFFSET 8.77824 4.35084 1.2192
    CHANNELS 3 Zrotation Xrotation Yrotation
    JOINT lThigh
    {
      OFFSET 0 -1.70687 -2.19456
      CHANNELS 3 Zrotation Xrotation Yrotation
      JOINT lShin
      {
        OFFSET 0 -36.8199 0.73152
        CHANNELS 3 Zrotation Xrotation Yrotation
        JOINT lFoot
        {
          OFFSET -0.73152 -45.1104 -5.12064
          CHANNELS 3 Zrotation Xrotation Yrotation
          End Site
          {
            OFFSET 1.1221 -3.69964 12.103
          }
        }
      }
    }
  }
}
MOTION
Frames:	4
Frame Time:	0.03333
-1.0900608082301915 62.07163619995117 9.942888266406953 -32.57049858570099 6.785126477479935 -10.316857472062111 -1.588076613843441 15.249166935682297 7.691943794488907 -0.12376248836517334 -9.84396792948246 9.368930608034134 1.1705656349658966 18.71995747089386 0.7750363647937775 4.61173988878727 -22.532958984375 -13.598687052726746 -0.6045209616422653 -9.813383370637894 3.182123824954033 -0.15954315662384033 -5.441861115396023 8.48787859082222 1.5835312753915787 -6.029135808348656 -0.31782902777194977 52.92264461517334 33.848863542079926 26.326168477535248 -23.44560742378235 -23.9226034283638 64.53125596046448 -6.097238436341286 -11.94265902042389 2.929188832640648 -11.052974313497543 1.039617508649826 6.280207335948944 -1.666748821735382 -2.3654602468013763 -3.124804347753525 -12.591117918491364 5.466396622359753 1.1355783138424158 17.129871547222137 1.284303367137909 7.383750602602959 4.474229067564011 -2.7655873261392117 1.8500637263059616 5.679835081100464 1.1434860527515411 -0.00566583126783371 -10.502654761075974 2.759675905108452 0.6458511203527451 12.651715725660324 -2.9596329107880592 -10.934330150485039 3.488412983715534 -6.18451215326786 -6.340506076812744 2.3130404949188232 -9.703355133533478 2.7850549668073654 5.136243514716625 0.2928127348423004 -8.47928211092949 -52.233654856681824 36.476975083351135 -32.11497366428375 28.87209177017212 -27.958260476589203 -55.33336579799652 -2.8883344307541847 -10.916490778326988 0.8352955430746078 2.30026513338089 -8.893858417868614 11.216040551662445 6.6729578375816345 -8.403457403182983 -5.240279026329517 -3.9958976581692696 -8.958567380905151 3.4669090434908867 -8.535351008176804 7.088501751422882 -1.7014046385884285 -1.3683542422950268 -8.245297595858574 -5.928332358598709 -9.29093062877655 6.702609658241272 5.64391627907753 1.4983617514371872 1.5365617722272873 1.7264239490032196 -2.118408679962158 1.8853092938661575 -5.866462513804436 -5.970514118671417 6.385891065001488 -1.2060715444386005 -1.3022379577159882 -17.650474905967712 -1.6093797236680984 -1.4059552922844887 3.1287673115730286 8.196848183870316 -33.66136908531189 -32.48933494091034 -30.21755486726761 -33.208778500556946 60.710792541503906 23.741251230239868 -5.160177871584892 -14.142452627420425 -8.848466724157333 -7.46919572353363 -11.46454855799675 12.174581587314606 41.71002388000488 -34.067619144916534 37.365891337394714 22.40136981010437 57.824145555496216 -25.85453689098358 5.979732200503349 -11.095998287200928 19.881716072559357
-1.1142454710789025 62.071998596191406 10.137562192045152 -32.54499614238739 6.766984015703201 -10.279360190033913 -1.6209765896201134 15.240390747785568 7.6741500198841095 -0.11543691158294678 -9.844338074326515 9.355964809656143 1.1537213623523712 18.731689453125 0.7828898727893829 4.614674225449562 -22.518303394317627 -13.593505024909973 -0.5814968794584274 -9.801023751497269 3.188561126589775 -0.14782726764678955 -5.431912802159786 8.489241153001785 1.5717349201440811 -6.02653406560421 -0.3349415212869644 52.93909192085266 33.85828882455826 26.346791982650757 -23.454447984695435 -23.917534053325653 64.55214500427246 -6.096734181046486 -11.953709721565247 2.9078813642263412 -11.074689477682114 1.0367153584957123 6.2918588519096375 -1.6534075140953064 -2.3609595000743866 -3.151594251394272 -12.559714615345001 5.481014661490917 1.0906674060970545 17.118665277957916 1.2668636441230774 7.385097071528435 4.459187239408493 -2.771144863218069 1.8246900290250778 5.708196759223938 1.1443711817264557 -0.018277578055858612 -10.516012161970139 2.7664458006620407 0.6425788253545761 12.64857217669487 -2.9438507929444313 -10.932940766215324 3.510192520916462 -6.204398050904274 -6.339899897575378 2.307847738265991 -9.7018101811409 2.7434753626585007 5.122414045035839 0.3034020960330963 -8.47628340125084 -52.21984148025513 36.50100767612457 -32.141881585121155 28.90577495098114 -27.923574149608612 -55.3571891784668 -2.895495928823948 -10.905547365546227 0.8723046630620956 2.287508547306061 -8.860920891165733 11.219286024570465 6.673676669597626 -8.37446540594101 -5.244935341179371 -3.9625953510403633 -8.941519260406494 3.4716833755373955 -8.533067107200623 7.071442902088165 -1.6909332945942879 -1.356740277260542 -8.245088383555412 -5.9216053783893585 -9.314501881599426 6.689305901527405 5.6279356777668 1.510351225733757 1.5241887420415878 1.7125193774700165 -2.1107804775238037 1.8765921145677567 -5.874224826693535 -5.943201184272766 6.40155516564846 -1.2118865735828876 -1.3050059974193573 -17.637643218040466 -1.6106349974870682 -1.4272734895348549 3.138948976993561 8.173571974039078 -33.678191900253296 -32.51250922679901 -30.210677683353424 -33.23416292667389 60.76067090034485 23.728516101837158 -5.153107568621635 -14.132370203733444 -8.841128200292587 -7.438307404518127 -11.448160260915756 12.15626746416092 41.70928359031677 -34.108571112155914 37.40074396133423 22.36252337694168 57.84747004508972 -25.833781957626343 5.994613096117973 -11.122852563858032 19.89488035440445
-1.1384271983988583 62.0718879699707 10.332199341617525 -32.556851506233215 6.772841960191727 -10.297760143876076 -1.611921451985836 15.256526917219162 7.683706730604172 -0.12187421321868896 -9.843520000576973 9.355138689279556 1.1490784585475922 18.733282685279846 0.77672079205513 4.611133709549904 -22.5289249420166 -13.595286011695862 -0.591944083571434 -9.794902950525284 3.181866332888603 -0.1611417531967163 -5.429294966161251 8.495978862047195 1.5693289786577225 -6.023379787802696 -0.33302105963230133 52.93215036392212 33.853128254413605 26.34348213672638 -23.452629446983337 -23.918982446193695 64.54760670661926 -6.109565868973732 -11.953698992729187 2.9091259092092514 -11.074056476354599 1.042216569185257 6.29404217004776 -1.6619235277175903 -2.362174540758133 -3.1370674073696136 -12.569059431552887 5.479137115180492 1.1038209591060877 17.11783915758133 1.2665900588035583 7.386647388339043 4.465388506650925 -2.7732047997415066 1.832103654742241 5.693112015724182 1.1394144594669342 -0.007044486701488495 -10.517642945051193 2.753131315112114 0.6434103101491928 12.644902914762497 -2.952326573431492 -10.92580072581768 3.5134540870785713 -6.192456856369972 -6.329004764556885 2.309422194957733 -9.701402485370636 2.759941443800926 5.118691138923168 0.29363885521888733 -8.481964319944382 -52.21997022628784 36.491695046424866 -32.13949978351593 28.905694484710693 -27.92409986257553 -55.339760184288025 -2.897893823683262 -10.90620182454586 0.8601059764623642 2.2867467999458313 -8.867551311850548 11.220342814922333 6.679770648479462 -8.390271663665771 -5.239946432411671 -3.967766650021076 -8.952709436416626 3.4720052406191826 -8.529336154460907 7.079382240772247 -1.692478246986866 -1.3590201549232006 -8.247100040316582 -5.918848067522049 -9.314952492713928 6.691837906837463 5.627375096082687 1.5055232495069504 1.5275361388921738 1.7256085574626923 -2.1138060092926025 1.8814683705568314 -5.8656203001737595 -5.947578549385071 6.39006994664669 -1.2086142785847187 -1.3138465583324432 -17.630658745765686 -1.6097874194383621 -1.4119848981499672 3.130408823490143 8.178893476724625 -33.67900729179382 -32.50726819038391 -30.21549493074417 -33.230794072151184 60.74721693992615 23.732214868068695 -5.15398733317852 -14.135873168706894 -8.847136348485947 -7.447909712791443 -11.447098106145859 12.16674953699112 41.70282483100891 -34.09870058298111 37.393620014190674 22.377897799015045 57.85351574420929 -25.84587872028351 5.991871878504753 -11.119097471237183 19.891683161258698
-1.162612069863826 62.07176971435547 10.526801741681993 -32.566872239112854 6.778367310762405 -10.313252583146095 -1.60233523696661 15.265989750623703 7.690141350030899 -0.12628376483917236 -9.843208864331245 9.356447607278824 1.1483944952487946 18.73142123222351 0.7720430195331573 4.608059898018837 -22.536617517471313 -13.596251606941223 -0.6011440604925156 -9.793706685304642 3.176281973719597 -0.16954243183135986 -5.4284393414855 8.498650342226028 1.5687818080186844 -6.023312732577324 -0.3281179815530777 52.92592763900757 33.84951800107956 26.338490545749664 -23.449641466140747 -23.91912192106247 64.5419043302536 -6.1163679510355 -11.951075792312622 2.912634238600731 -11.07078418135643 1.0453225672245026 6.2941548228263855 -1.66829913854599 -2.3636873066425323 -3.124348372220993 -12.579294741153717 5.476331524550915 1.1169745121151209 17.11933046579361 1.2692829966545105 7.388052865862846 4.471396654844284 -2.7731618843972683 1.839066669344902 5.681911110877991 1.136823445558548 2.5816261768341064e-05 -10.51724597811699 2.743797227740288 0.645303949713707 12.6438407599926 -2.9591071978211403 -10.921686217188835 3.5123221948742867 -6.183801367878914 -6.324005126953125 2.311597466468811 -9.701166450977325 2.774626538157463 5.118052773177624 0.28759852051734924 -8.485526293516159 -52.22245931625366 36.48255407810211 -32.1353155374527 28.90081822872162 -27.929002940654755 -55.32715916633606 -2.8985965624451637 -10.908594354987144 0.8494897931814194 2.28852778673172 -8.875458464026451 11.219575703144073 6.681755483150482 -8.401654958724976 -5.236395187675953 -3.975491411983967 -8.961549997329712 3.4716565534472466 -8.527083098888397 7.086071670055389 -1.6948707774281502 -1.360956709831953 -8.249055370688438 -5.917292386293411 -9.312313199043274 6.695013642311096 5.6291936337947845 1.5016179531812668 1.5294217318296432 1.7348460853099823 -2.1167242527008057 1.8845207244157791 -5.860819146037102 -5.9536296129226685 6.381046995520592 -1.2049932964146137 -1.3161157071590424 -17.629119157791138 -1.608365848660469 -1.400751806795597 3.123585283756256 8.185537308454514 -33.67686152458191 -32.50231146812439 -30.217576324939728 -33.22523653507233 60.734519362449646 23.734846115112305 -5.154936835169792 -14.138147681951523 -8.851116746664047 -7.457243800163269 -11.448380202054977 12.174656689167023 41.69913411140442 -34.088336527347565 37.38492429256439 22.392234206199646 57.85332262516022 -25.854912400245667 5.987070724368095 -11.113572120666504 19.888271391391754
